<?xml version="1.0" encoding="UTF-8" standalone="no"?>
<!DOCTYPE svg PUBLIC "-//W3C//DTD SVG 1.1//EN" "http://www.w3.org/Graphics/SVG/1.1/DTD/svg11.dtd">
<!-- Created with Vectornator (http://vectornator.io/) -->
<svg height="100%" stroke-miterlimit="10" style="fill-rule:nonzero;clip-rule:evenodd;stroke-linecap:round;stroke-linejoin:round;" version="1.1" viewBox="0 0 1683.99 1190.7" width="100%" xml:space="preserve" xmlns="http://www.w3.org/2000/svg" xmlns:vectornator="http://vectornator.io" xmlns:xlink="http://www.w3.org/1999/xlink">
<defs/>
<g id="レイヤー-1" vectornator:layerName="レイヤー 1">
<path d="M631.513 624.875L949.033 624.875" fill="none" opacity="1" stroke="#000000" stroke-linecap="round" stroke-linejoin="round" stroke-width="36.5941"/>
<path d="M614.534 475.652L928.746 475.652L928.746 616.168L614.534 616.168L614.534 475.652Z" fill="#0067ff" fill-rule="nonzero" opacity="1" stroke="none"/>
<path d="M631.513 466.115L949.033 466.115" fill="none" opacity="1" stroke="#000000" stroke-linecap="round" stroke-linejoin="round" stroke-width="36.5941"/>
<path d="M628.678 466.115C606.662 499.139 606.662 591.851 628.678 624.875" fill="none" opacity="1" stroke="#000000" stroke-linecap="round" stroke-linejoin="round" stroke-width="36.5941"/>
<path d="M949.033 466.115C927.017 499.139 927.017 591.851 949.033 624.875" fill="none" opacity="1" stroke="#000000" stroke-linecap="round" stroke-linejoin="round" stroke-width="36.5941"/>
<path d="M631.513 466.115L552.133 466.115" fill="none" opacity="1" stroke="#000000" stroke-linecap="round" stroke-linejoin="round" stroke-width="36.5941"/>
<path d="M552.133 466.115L592.133 307.355L949.033 307.355" fill="none" opacity="1" stroke="#000000" stroke-linecap="round" stroke-linejoin="round" stroke-width="36.5941"/>
<path d="M631.513 624.875L552.133 704.255L869.653 704.255L949.033 624.875L631.513 624.875Z" fill="none" opacity="1" stroke="#000000" stroke-linecap="round" stroke-linejoin="round" stroke-width="36.5941"/>
<g opacity="1">
<path d="M1064.38 288.906C1061.89 288.909 1059.42 288.936 1056.94 288.938C1049.5 288.942 1042.07 288.935 1034.62 288.938C1006.1 288.945 977.558 288.961 949.031 288.969C938.871 288.969 930.625 297.184 930.625 307.344C930.625 317.504 938.871 325.75 949.031 325.75C978.179 325.758 1007.32 325.773 1036.47 325.781C1043.29 325.783 1050.12 325.777 1056.94 325.781C1059.82 325.783 1062.74 325.887 1065.62 325.781C1066.17 325.937 1066.78 326.112 1067.31 326.281C1068.66 326.709 1070 327.184 1071.31 327.719C1075.85 329.566 1080.24 332.129 1083.59 335.75C1085.65 337.972 1087.28 340.585 1088.31 343.438C1088.66 344.405 1088.97 345.395 1089.16 346.406C1089.2 346.665 1089.22 346.927 1089.25 347.188C1089.26 347.244 1089.28 347.29 1089.28 347.344C1089.29 347.386 1089.28 347.424 1089.28 347.469C1089.27 351.208 1089.29 354.949 1089.28 358.688C1089.27 366.052 1089.26 373.417 1089.25 380.781C1089.21 417.991 1089.09 455.197 1089 492.406C1088.65 642.407 1088.46 792.405 1088.38 942.406C1088.38 953.137 1097.05 961.813 1107.78 961.812C1118.51 961.812 1127.22 953.137 1127.22 942.406C1127.13 788.142 1126.89 633.858 1126.53 479.594C1126.45 444.322 1126.35 409.053 1126.31 373.781C1126.31 367.192 1126.32 360.62 1126.31 354.031C1126.31 349.846 1126.46 345.651 1125.84 341.5C1124.71 333.952 1121.93 326.65 1117.94 320.156C1115.83 316.721 1113.38 313.509 1110.62 310.562C1102.59 301.959 1092.24 295.89 1081.19 292.031C1078.86 291.22 1076.47 290.38 1074.06 289.844C1072.71 289.541 1071.35 289.164 1069.97 289C1068.73 288.853 1067.5 288.927 1066.25 288.906C1065.63 288.896 1065 288.906 1064.38 288.906Z" fill="#000000" stroke="none"/>
</g>
<path d="M552.133 704.255L552.133 942.395L1107.79 942.395" fill="none" opacity="1" stroke="#000000" stroke-linecap="round" stroke-linejoin="round" stroke-width="36.5941"/>
<path d="M949.033 466.115L988.723 307.355" fill="none" opacity="1" stroke="#000000" stroke-linecap="round" stroke-linejoin="round" stroke-width="36.5941"/>
<g opacity="1">
<path d="M594.964 625.988L634.654 665.678" fill="#b4b4b4" fill-rule="nonzero" opacity="1" stroke="#ababab" stroke-linecap="round" stroke-linejoin="round" stroke-width="36.5941"/>
<path d="M555.274 625.988C555.274 604.068 573.044 586.298 594.964 586.298C616.884 586.298 634.654 604.068 634.654 625.988C634.654 647.908 616.884 665.678 594.964 665.678C573.044 665.678 555.274 647.908 555.274 625.988Z" fill="#ff0000" fill-rule="nonzero" opacity="1" stroke="none"/>
</g>
</g>
</svg>
